{
  "asset": {
    "generator": "glTF-Transform v4.2.1",
    "version": "2.0"
  },
  "accessors": [
    {
      "type": "VEC3",
      "componentType": 5126,
      "count": 72000,
      "max": [
        10.143586158752441,
        29.600547790527344,
        22.13568687438965
      ],
      "min": [
        -24.999109268188477,
        -3.854964256286621,
        -50.333961486816406
      ],
      "bufferView": 0,
      "byteOffset": 0
    },
    {
      "type": "VEC3",
      "componentType": 5126,
      "count": 72000,
      "bufferView": 0,
      "byteOffset": 12
    },
    {
      "type": "VEC2",
      "componentType": 5126,
      "count": 72000,
      "bufferView": 0,
      "byteOffset": 24
    },
    {
      "type": "SCALAR",
      "componentType": 5125,
      "count": 72000,
      "bufferView": 1,
      "byteOffset": 0
    }
  ],
  "bufferViews": [
    {
      "buffer": 0,
      "byteOffset": 0,
      "byteLength": 2304000,
      "byteStride": 32,
      "target": 34962
    },
    {
      "buffer": 0,
      "byteOffset": 2304000,
      "byteLength": 288000,
      "target": 34963
    }
  ],
  "buffers": [
    {
      "uri": "buffer.bin",
      "byteLength": 2592000
    }
  ],
  "materials": [
    {
      "name": "standardSurface2",
      "pbrMetallicRoughness": {
        "baseColorFactor": [
          0,
          0,
          0,
          1
        ],
        "roughnessFactor": 0.5961538553237915,
        "metallicFactor": 0
      },
      "emissiveFactor": [
        1,
        1,
        1
      ]
    }
  ],
  "meshes": [
    {
      "primitives": [
        {
          "attributes": {
            "POSITION": 0,
            "NORMAL": 1,
            "TEXCOORD_0": 2
          },
          "mode": 4,
          "material": 0,
          "indices": 3
        }
      ]
    }
  ],
  "nodes": [
    {
      "name": "transform5"
    },
    {
      "name": "polySurface1",
      "children": [
        0
      ]
    },
    {
      "name": "transform8"
    },
    {
      "name": "polySurface2",
      "children": [
        2
      ]
    },
    {
      "name": "transform4"
    },
    {
      "name": "polySurface3",
      "children": [
        4
      ]
    },
    {
      "name": "transform22"
    },
    {
      "name": "polySurface4",
      "children": [
        6
      ]
    },
    {
      "name": "transform7"
    },
    {
      "name": "polySurface5",
      "children": [
        8
      ]
    },
    {
      "name": "transform13"
    },
    {
      "name": "polySurface6",
      "children": [
        10
      ]
    },
    {
      "name": "transform25"
    },
    {
      "name": "polySurface7",
      "children": [
        12
      ]
    },
    {
      "name": "transform24"
    },
    {
      "name": "polySurface8",
      "children": [
        14
      ]
    },
    {
      "name": "transform9"
    },
    {
      "name": "polySurface9",
      "children": [
        16
      ]
    },
    {
      "name": "transform6"
    },
    {
      "name": "polySurface10",
      "children": [
        18
      ]
    },
    {
      "name": "transform20"
    },
    {
      "name": "polySurface11",
      "children": [
        20
      ]
    },
    {
      "name": "transform11"
    },
    {
      "name": "polySurface12",
      "children": [
        22
      ]
    },
    {
      "name": "transform12"
    },
    {
      "name": "polySurface13",
      "children": [
        24
      ]
    },
    {
      "name": "transform23"
    },
    {
      "name": "polySurface14",
      "children": [
        26
      ]
    },
    {
      "name": "transform10"
    },
    {
      "name": "polySurface15",
      "children": [
        28
      ]
    },
    {
      "name": "transform3"
    },
    {
      "name": "polySurface16",
      "children": [
        30
      ]
    },
    {
      "name": "transform21"
    },
    {
      "name": "polySurface17",
      "children": [
        32
      ]
    },
    {
      "name": "transform19"
    },
    {
      "name": "polySurface18",
      "children": [
        34
      ]
    },
    {
      "name": "transform2"
    },
    {
      "name": "polySurface19",
      "children": [
        36
      ]
    },
    {
      "name": "transform1"
    },
    {
      "name": "transform14"
    },
    {
      "name": "polySurface20",
      "translation": [
        4.605277061462402,
        10.584330558776855,
        1.9811760187149048
      ],
      "rotation": [
        -0.49582123326952954,
        0.08422507980160963,
        -0.06401178839596024,
        0.8619570356267909
      ],
      "children": [
        39
      ]
    },
    {
      "name": "transform16"
    },
    {
      "name": "polySurface21",
      "translation": [
        4.617722988128662,
        10.915569305419922,
        1.344231367111206
      ],
      "rotation": [
        -0.49582123326952954,
        0.08422507980160963,
        -0.06401178839596024,
        0.8619570356267909
      ],
      "children": [
        41
      ]
    },
    {
      "name": "transform15"
    },
    {
      "name": "polySurface22",
      "translation": [
        4.6310577392578125,
        11.216482162475586,
        0.789872944355011
      ],
      "rotation": [
        -0.49582123326952954,
        0.08422507980160963,
        -0.06401178839596024,
        0.8619570356267909
      ],
      "children": [
        43
      ]
    },
    {
      "name": "transform17"
    },
    {
      "name": "polySurface23",
      "translation": [
        4.605755805969238,
        10.258726119995117,
        2.759361743927002
      ],
      "rotation": [
        -0.49582123326952954,
        0.08422507980160963,
        -0.06401178839596024,
        0.8619570356267909
      ],
      "children": [
        45
      ]
    },
    {
      "name": "transform18"
    },
    {
      "name": "polySurface24",
      "translation": [
        4.618892669677734,
        9.963964462280273,
        3.6158125400543213
      ],
      "rotation": [
        -0.49582123326952954,
        0.08422507980160963,
        -0.06401178839596024,
        0.8619570356267909
      ],
      "children": [
        47
      ]
    },
    {
      "name": "pTorus22",
      "translation": [
        -6.847066879272461,
        14.972514152526855,
        -17.810440063476562
      ],
      "rotation": [
        0,
        0,
        0.6478083140852344,
        0.7618033789647078
      ],
      "children": [
        1,
        3,
        5,
        7,
        9,
        11,
        13,
        15,
        17,
        19,
        21,
        23,
        25,
        27,
        29,
        31,
        33,
        35,
        37,
        38,
        40,
        42,
        44,
        46,
        48
      ]
    },
    {
      "name": "polySurface7_1",
      "mesh": 0
    },
    {
      "name": "bend1Handle",
      "translation": [
        -5.929992198944092,
        13.72376823425293,
        -10.971763610839844
      ],
      "rotation": [
        -0.8183454824356334,
        -0.06714449783907891,
        0.04667603175626281,
        0.568879281451824
      ],
      "scale": [
        39.362197895308135,
        39.3621998182824,
        39.362199825017434
      ]
    },
    {
      "name": "FBX_Root",
      "children": [
        49,
        50,
        51
      ]
    }
  ],
  "scenes": [
    {
      "name": "empty_1",
      "nodes": [
        52
      ]
    }
  ],
  "scene": 0
}